<svg xmlns="http://www.w3.org/2000/svg" viewBox="0 0 200 200">
  <defs>
    <style>
      .logo-text { fill: #2c5f7d; font-family: Arial, sans-serif; font-weight: bold; }
      .logo-outline { fill: none; stroke: #2c5f7d; stroke-width: 3; }
      .logo-shape { fill: #2c5f7d; }
    </style>
  </defs>
  
  <!-- Outer circle -->
  <circle cx="100" cy="100" r="95" class="logo-outline"/>
  
  <!-- Inner design circle -->
  <circle cx="100" cy="100" r="85" class="logo-outline"/>
  
  <!-- Eagle silhouette -->
  <g transform="translate(100, 80) scale(0.35)">
    <path class="logo-shape" d="M0,-60 L-40,-20 L-60,0 L-40,20 L-20,10 L0,40 L20,10 L40,20 L60,0 L40,-20 Z"/>
    <path class="logo-shape" d="M-30,-40 Q-45,-35 -50,-20"/>
    <path class="logo-shape" d="M30,-40 Q45,-35 50,-20"/>
    <circle class="logo-shape" cx="0" cy="-50" r="8"/>
  </g>
  
  <!-- Top text arc -->
  <path id="topArc" d="M 30,100 A 70,70 0 0,1 170,100" fill="none"/>
  <text class="logo-text" font-size="16" letter-spacing="2">
    <textPath href="#topArc" startOffset="50%" text-anchor="middle">
      MISSAEL LOPEZ LIRA
    </textPath>
  </text>
  
  <!-- Bottom text arc -->
  <path id="bottomArc" d="M 170,100 A 70,70 0 0,1 30,100" fill="none"/>
  <text class="logo-text" font-size="12" letter-spacing="1">
    <textPath href="#bottomArc" startOffset="50%" text-anchor="middle">
      GLOBAL PARTS DISTRIBUTOR
    </textPath>
  </text>
</svg>
